HIERARCHY
ROOT Hips
{
	OFFSET 0.000000 0.000000 0.000000
	CHANNELS 6 Xposition Yposition Zposition Xrotation Yrotation Zrotation
	JOINT LeftUpLeg_virtual
	{
		OFFSET 0.000000 0.000000 0.000000
		CHANNELS 3 Xrotation Yrotation Zrotation
		JOINT LeftUpLeg
		{
			OFFSET 11.394100 -6.187798 -0.413800
			CHANNELS 3 Xrotation Yrotation Zrotation
			JOINT LeftLeg
			{
				OFFSET 0.430247 -32.302673 3.732800
				CHANNELS 3 Xrotation Yrotation Zrotation
				JOINT LeftFoot
				{
					OFFSET -0.430247 -48.264931 -6.423300
					CHANNELS 3 Xrotation Yrotation Zrotation
					JOINT LeftToeBase
					{
						OFFSET 4.230900 -16.068199 23.438400
						CHANNELS 3 Xrotation Yrotation Zrotation
						JOINT LeftToe_End
						{
							OFFSET 4.510700 0.695400 19.974600
							CHANNELS 3 Xrotation Yrotation Zrotation
							End Site
							{
								OFFSET 0 0 0
							}
						}
					}
				}
			}
		}
	}
	JOINT RightUpLeg_virtual
	{
		OFFSET 0.000000 0.000000 0.000000
		CHANNELS 3 Xrotation Yrotation Zrotation
		JOINT RightUpLeg
		{
			OFFSET -11.333700 -6.187798 -0.413800
			CHANNELS 3 Xrotation Yrotation Zrotation
			JOINT RightLeg
			{
				OFFSET -0.430392 -32.302628 3.733000
				CHANNELS 3 Xrotation Yrotation Zrotation
				JOINT RightFoot
				{
					OFFSET 0.430392 -48.264973 -6.423500
					CHANNELS 3 Xrotation Yrotation Zrotation
					JOINT RightToeBase
					{
						OFFSET -4.230900 -16.068199 23.438400
						CHANNELS 3 Xrotation Yrotation Zrotation
						JOINT RightToe_End
						{
							OFFSET -4.510700 0.695400 19.974600
							CHANNELS 3 Xrotation Yrotation Zrotation
							End Site
							{
								OFFSET 0 0 0
							}
						}
					}
				}
			}
		}
	}
	JOINT Spine_virtual
	{
		OFFSET 0.000000 0.000000 0.000000
		CHANNELS 3 Xrotation Yrotation Zrotation
		JOINT Spine
		{
			OFFSET -0.002400 12.777504 0.315300
			CHANNELS 3 Xrotation Yrotation Zrotation
			JOINT Spine1
			{
				OFFSET -0.002067 5.816869 0.032633
				CHANNELS 3 Xrotation Yrotation Zrotation
				JOINT Spine1_split
				{
					OFFSET -0.002067 5.816869 0.032633
					CHANNELS 3 Xrotation Yrotation Zrotation
					JOINT Spine2
					{
						OFFSET -0.002067 5.816869 0.032633
						CHANNELS 3 Xrotation Yrotation Zrotation
						JOINT Neck_virtual
						{
							OFFSET 0.000000 0.000000 0.000000
							CHANNELS 3 Xrotation Yrotation Zrotation
							JOINT Neck
							{
								OFFSET -0.003700 21.199493 -0.826900
								CHANNELS 3 Xrotation Yrotation Zrotation
								JOINT Head
								{
									OFFSET 0.000000 20.442200 4.834800
									CHANNELS 3 Xrotation Yrotation Zrotation
									JOINT HeadTop_End
									{
										OFFSET 0.000000 34.668396 4.968400
										CHANNELS 3 Xrotation Yrotation Zrotation
										End Site
										{
											OFFSET 0 0 0
										}
									}
								}
							}
						}
						JOINT LeftShoulder_virtual
						{
							OFFSET 0.000000 0.000000 0.000000
							CHANNELS 3 Xrotation Yrotation Zrotation
							JOINT LeftShoulder
							{
								OFFSET 3.288150 8.794197 -1.372250
								CHANNELS 3 Xrotation Yrotation Zrotation
								JOINT LeftShoulder_split
								{
									OFFSET 3.288150 8.794197 -1.372250
									CHANNELS 3 Xrotation Yrotation Zrotation
									JOINT LeftArm
									{
										OFFSET 11.953299 -2.279007 -0.146200
										CHANNELS 3 Xrotation Yrotation Zrotation
										JOINT LeftForeArm
										{
											OFFSET 18.448900 0.000000 0.000000
											CHANNELS 3 Xrotation Yrotation Zrotation
											JOINT LeftHand
											{
												OFFSET 29.527798 0.000000 0.000000
												CHANNELS 3 Xrotation Yrotation Zrotation
												End Site
												{
													OFFSET 0 0 0
												}
											}
										}
									}
								}
							}
						}
						JOINT RightShoulder_virtual
						{
							OFFSET 0.000000 0.000000 0.000000
							CHANNELS 3 Xrotation Yrotation Zrotation
							JOINT RightShoulder
							{
								OFFSET -3.249400 8.794197 -1.372250
								CHANNELS 3 Xrotation Yrotation Zrotation
								JOINT RightShoulder_split
								{
									OFFSET -3.249400 8.794197 -1.372250
									CHANNELS 3 Xrotation Yrotation Zrotation
									JOINT RightArm
									{
										OFFSET -11.953299 -2.279007 -0.146200
										CHANNELS 3 Xrotation Yrotation Zrotation
										JOINT RightForeArm
										{
											OFFSET -18.448900 0.000000 0.000000
											CHANNELS 3 Xrotation Yrotation Zrotation
											JOINT RightHand
											{
												OFFSET -29.527802 0.000000 0.000000
												CHANNELS 3 Xrotation Yrotation Zrotation
												End Site
												{
													OFFSET 0 0 0
												}
											}
										}
									}
								}
							}
						}
					}
				}
			}
		}
	}
}
MOTION
Frames: 4
Frame Time: 0.03333333
0.374487 101.695229 -1.090031 0.000000 0.000000 0.000000 -2.126237 6.408740 1.277078 -8.509694 7.812587 5.474657 18.482087 0.081988 -0.445703 -11.015460 0.321972 -3.856735 -0.577612 0.411732 0.480279 0.000000 0.000000 0.000000 -2.531104 6.275414 0.892857 -5.907574 -2.675851 -5.867966 16.327304 -9.832097 -0.050601 -4.309110 -19.226197 3.753137 -2.598950 -1.000967 -2.489507 0.000000 0.000000 0.000000 -1.669006 4.926893 0.487809 -1.248408 -1.708085 -2.474102 0.793876 -0.240657 1.958550 1.676452 -1.419133 -0.100110 0.000000 0.000000 0.000000 0.123793 -0.132677 1.456281 7.443693 1.587177 -0.967392 -2.891341 0.149761 2.240979 0.000000 0.000000 0.000000 0.747128 0.280809 1.073927 6.710081 -25.016200 -5.992665 -0.578861 -2.203139 -1.783970 7.217398 5.064274 -79.676793 -2.298000 -16.361010 1.710551 0.000000 0.000000 0.000000 0.609774 0.263506 2.052140 1.972050 -5.994424 9.298794 0.887575 6.155805 -0.774497 7.141732 17.923487 72.920691 1.473544 15.121279 -0.577734 0.000000 0.000000 0.000000 
0.240184 101.666710 -1.201759 0.000000 0.000000 0.000000 -2.105124 6.521195 1.286066 -8.474437 7.980749 5.484979 18.491190 0.025713 -0.491160 -11.091186 0.284038 -3.762502 -0.582041 0.409979 0.516077 0.000000 0.000000 0.000000 -2.495404 6.299405 0.899416 -5.956017 -2.696310 -5.822932 16.476491 -9.862363 -0.037104 -4.366669 -19.193096 3.667673 -2.591654 -0.987360 -2.523465 0.000000 0.000000 0.000000 -1.647061 4.757812 0.597136 -1.293359 -1.705333 -2.517732 0.746513 -0.263997 1.921640 1.618610 -1.415815 -0.091328 0.000000 0.000000 0.000000 0.133487 -0.126137 1.420696 7.558715 1.627602 -1.123023 -2.850918 0.293363 2.106404 0.000000 0.000000 0.000000 0.723586 0.264456 1.044870 6.760320 -25.014895 -6.025651 -0.537439 -2.009771 -2.006089 7.118555 4.790119 -79.810276 -2.314187 -16.569375 1.685838 0.000000 0.000000 0.000000 0.581727 0.255396 2.066722 1.943507 -6.001443 9.293079 0.774833 6.459556 -0.829177 7.335153 17.810575 72.874628 1.531292 15.064865 -0.647530 0.000000 0.000000 0.000000 
0.106088 101.623711 -1.227776 0.000000 0.000000 0.000000 -2.141915 6.576110 1.295722 -8.380850 8.146183 5.496254 18.412537 -0.030654 -0.494407 -11.111871 0.296095 -3.704775 -0.616535 0.410003 0.534834 0.000000 0.000000 0.000000 -2.438371 6.263019 0.911989 -6.014487 -2.589898 -5.819844 16.677478 -9.849721 -0.007117 -4.188371 -19.125807 3.737495 -2.816444 -0.962439 -2.600970 0.000000 0.000000 0.000000 -1.663156 4.732624 0.703183 -1.308036 -1.675147 -2.552117 0.663359 -0.287987 1.875034 1.531600 -1.310109 0.004524 0.000000 0.000000 0.000000 0.130689 -0.124892 1.398460 7.584336 1.672107 -1.347447 -2.863570 0.287969 2.006052 0.000000 0.000000 0.000000 0.676441 0.262630 1.031915 6.780143 -25.079384 -6.121815 -0.586159 -1.848543 -2.224001 7.248030 4.132229 -79.722043 -2.180860 -16.740720 1.675073 0.000000 0.000000 0.000000 0.555094 0.241946 2.051745 1.882592 -5.949170 9.367464 0.841207 6.637802 -0.957649 7.292330 17.842201 72.642948 1.536964 15.098485 -0.636614 0.000000 0.000000 0.000000 
-0.003507 101.588226 -1.150902 0.000000 0.000000 0.000000 -2.216677 6.537646 1.294573 -8.236111 8.276417 5.508976 18.243944 -0.042231 -0.449369 -11.063776 0.345903 -3.686448 -0.648018 0.412727 0.522644 0.000000 0.000000 0.000000 -2.352273 6.217260 0.919271 -6.037085 -2.416189 -5.839234 16.850114 -9.818269 0.022386 -3.905564 -19.036191 3.864001 -3.176427 -0.922233 -2.694208 0.000000 0.000000 0.000000 -1.673081 4.827507 0.774114 -1.273897 -1.640433 -2.572379 0.554343 -0.318674 1.827590 1.500464 -1.272630 0.174010 0.000000 0.000000 0.000000 0.112225 -0.129208 1.396981 7.543515 1.750625 -1.585514 -2.902119 0.141033 1.960089 0.000000 0.000000 0.000000 0.597961 0.266986 1.042091 6.775321 -25.195982 -6.221549 -0.675190 -1.679570 -2.457495 7.553631 3.267651 -79.373000 -1.937855 -16.875439 1.640450 0.000000 0.000000 0.000000 0.509775 0.212681 2.012474 1.795487 -5.839685 9.546347 1.055664 6.612985 -1.036878 7.076336 17.976493 72.315161 1.489513 15.311727 -0.558290 0.000000 0.000000 0.000000 
